<?xml version="1.0" encoding="UTF-8" standalone="no"?><!DOCTYPE svg PUBLIC "-//W3C//DTD SVG 1.1//EN" "http://www.w3.org/Graphics/SVG/1.1/DTD/svg11.dtd"><!-- Generated by graphviz version 2.40.1 (20161225.0304)
 --><!-- Title: G Pages: 1 --><svg xmlns="http://www.w3.org/2000/svg" xmlns:xlink="http://www.w3.org/1999/xlink" width="871pt" height="256pt" viewBox="0.00 0.00 871.44 256.49">
<g id="graph0" class="graph" transform="scale(1 1) rotate(0) translate(4 252.4939)">
<title>G</title>
<polygon fill="#ffffff" stroke="transparent" points="-4,4 -4,-252.4939 867.437,-252.4939 867.437,4 -4,4"/>
<!-- SYNTAX_NODE_4 -->
<g id="node1" class="node">
<title>SYNTAX_NODE_4</title>
<ellipse fill="none" stroke="#000000" cx="109.9899" cy="-219.0782" rx="109.9798" ry="29.3315"/>
<text text-anchor="middle" x="109.9899" y="-223.2782" font-family="Times,serif" font-size="14.00" fill="#000000">kNodeCreateIndex(1,30)</text>
<text text-anchor="middle" x="109.9899" y="-206.4782" font-family="Times,serif" font-size="14.00" fill="#000000">id(4)</text>
</g>
<!-- SYNTAX_NODE_0 -->
<g id="node2" class="node">
<title>SYNTAX_NODE_0</title>
<ellipse fill="none" stroke="#000000" cx="109.9899" cy="-124.2469" rx="98.3942" ry="29.3315"/>
<text text-anchor="middle" x="109.9899" y="-128.4469" font-family="Times,serif" font-size="14.00" fill="#000000">kNodeIdentifier(1,17)</text>
<text text-anchor="middle" x="109.9899" y="-111.6469" font-family="Times,serif" font-size="14.00" fill="#000000">id(0),val(idx1)</text>
</g>
<!-- SYNTAX_NODE_4&#45;&gt;SYNTAX_NODE_0 -->
<g id="edge5" class="edge">
<title>SYNTAX_NODE_4-&gt;SYNTAX_NODE_0</title>
<path fill="none" stroke="#000000" d="M109.9899,-189.5928C109.9899,-181.4754 109.9899,-172.5358 109.9899,-163.9436"/>
<polygon fill="#000000" stroke="#000000" points="113.49,-163.714 109.9899,-153.7141 106.49,-163.7141 113.49,-163.714"/>
</g>
<!-- SYNTAX_NODE_1 -->
<g id="node3" class="node">
<title>SYNTAX_NODE_1</title>
<ellipse fill="none" stroke="#000000" cx="324.9899" cy="-124.2469" rx="98.3942" ry="29.3315"/>
<text text-anchor="middle" x="324.9899" y="-128.4469" font-family="Times,serif" font-size="14.00" fill="#000000">kNodeIdentifier(1,23)</text>
<text text-anchor="middle" x="324.9899" y="-111.6469" font-family="Times,serif" font-size="14.00" fill="#000000">id(1),val(t1)</text>
</g>
<!-- SYNTAX_NODE_0&#45;&gt;SYNTAX_NODE_1 -->
<g id="edge4" class="edge">
<title>SYNTAX_NODE_0-&gt;SYNTAX_NODE_1</title>
<path fill="none" stroke="#000000" d="M208.6715,-124.2469C211.1635,-124.2469 213.6554,-124.2469 216.1473,-124.2469"/>
<polygon fill="#000000" stroke="#000000" points="216.3919,-127.747 226.3919,-124.2469 216.3919,-120.747 216.3919,-127.747"/>
</g>
<!-- SYNTAX_NODE_5 -->
<g id="node4" class="node">
<title>SYNTAX_NODE_5</title>
<ellipse fill="none" stroke="#000000" cx="549.9899" cy="-124.2469" rx="108.8435" ry="29.3315"/>
<text text-anchor="middle" x="549.9899" y="-128.4469" font-family="Times,serif" font-size="14.00" fill="#000000">kNodeColumnList(1,30)</text>
<text text-anchor="middle" x="549.9899" y="-111.6469" font-family="Times,serif" font-size="14.00" fill="#000000">id(5),val(index keys)</text>
</g>
<!-- SYNTAX_NODE_1&#45;&gt;SYNTAX_NODE_5 -->
<g id="edge3" class="edge">
<title>SYNTAX_NODE_1-&gt;SYNTAX_NODE_5</title>
<path fill="none" stroke="#000000" d="M423.8668,-124.2469C426.0479,-124.2469 428.229,-124.2469 430.4101,-124.2469"/>
<polygon fill="#000000" stroke="#000000" points="430.6176,-127.747 440.6176,-124.2469 430.6175,-120.747 430.6176,-127.747"/>
</g>
<!-- SYNTAX_NODE_2 -->
<g id="node5" class="node">
<title>SYNTAX_NODE_2</title>
<ellipse fill="none" stroke="#000000" cx="549.9899" cy="-29.4156" rx="98.3942" ry="29.3315"/>
<text text-anchor="middle" x="549.9899" y="-33.6156" font-family="Times,serif" font-size="14.00" fill="#000000">kNodeIdentifier(1,25)</text>
<text text-anchor="middle" x="549.9899" y="-16.8156" font-family="Times,serif" font-size="14.00" fill="#000000">id(2),val(a)</text>
</g>
<!-- SYNTAX_NODE_5&#45;&gt;SYNTAX_NODE_2 -->
<g id="edge2" class="edge">
<title>SYNTAX_NODE_5-&gt;SYNTAX_NODE_2</title>
<path fill="none" stroke="#000000" d="M549.9899,-94.7615C549.9899,-86.6441 549.9899,-77.7045 549.9899,-69.1123"/>
<polygon fill="#000000" stroke="#000000" points="553.49,-68.8828 549.9899,-58.8828 546.49,-68.8828 553.49,-68.8828"/>
</g>
<!-- SYNTAX_NODE_3 -->
<g id="node6" class="node">
<title>SYNTAX_NODE_3</title>
<ellipse fill="none" stroke="#000000" cx="764.9899" cy="-29.4156" rx="98.3942" ry="29.3315"/>
<text text-anchor="middle" x="764.9899" y="-33.6156" font-family="Times,serif" font-size="14.00" fill="#000000">kNodeIdentifier(1,28)</text>
<text text-anchor="middle" x="764.9899" y="-16.8156" font-family="Times,serif" font-size="14.00" fill="#000000">id(3),val(b)</text>
</g>
<!-- SYNTAX_NODE_2&#45;&gt;SYNTAX_NODE_3 -->
<g id="edge1" class="edge">
<title>SYNTAX_NODE_2-&gt;SYNTAX_NODE_3</title>
<path fill="none" stroke="#000000" d="M648.6715,-29.4156C651.1635,-29.4156 653.6554,-29.4156 656.1473,-29.4156"/>
<polygon fill="#000000" stroke="#000000" points="656.3919,-32.9155 666.3919,-29.4156 656.3919,-25.9155 656.3919,-32.9155"/>
</g>
</g>
</svg>