<?xml version="1.0" encoding="UTF-8" standalone="no"?><!DOCTYPE svg PUBLIC "-//W3C//DTD SVG 1.1//EN" "http://www.w3.org/Graphics/SVG/1.1/DTD/svg11.dtd"><!-- Generated by graphviz version 2.40.1 (20161225.0304)
 --><!-- Title: G Pages: 1 --><svg xmlns="http://www.w3.org/2000/svg" xmlns:xlink="http://www.w3.org/1999/xlink" width="1990pt" height="446pt" viewBox="0.00 0.00 1990.43 446.16">
<g id="graph0" class="graph" transform="scale(1 1) rotate(0) translate(4 442.1564)">
<title>G</title>
<polygon fill="#ffffff" stroke="transparent" points="-4,4 -4,-442.1564 1986.435,-442.1564 1986.435,4 -4,4"/>
<!-- SYNTAX_NODE_14 -->
<g id="node1" class="node">
<title>SYNTAX_NODE_14</title>
<ellipse fill="none" stroke="#000000" cx="109.9879" cy="-408.7408" rx="109.9758" ry="29.3315"/>
<text text-anchor="middle" x="109.9879" y="-412.9408" font-family="Times,serif" font-size="14.00" fill="#000000">kNodeCreateTable(1,69)</text>
<text text-anchor="middle" x="109.9879" y="-396.1408" font-family="Times,serif" font-size="14.00" fill="#000000">id(14)</text>
</g>
<!-- SYNTAX_NODE_0 -->
<g id="node2" class="node">
<title>SYNTAX_NODE_0</title>
<ellipse fill="none" stroke="#000000" cx="109.9879" cy="-313.9095" rx="98.3942" ry="29.3315"/>
<text text-anchor="middle" x="109.9879" y="-318.1095" font-family="Times,serif" font-size="14.00" fill="#000000">kNodeIdentifier(1,15)</text>
<text text-anchor="middle" x="109.9879" y="-301.3095" font-family="Times,serif" font-size="14.00" fill="#000000">id(0),val(t1)</text>
</g>
<!-- SYNTAX_NODE_14&#45;&gt;SYNTAX_NODE_0 -->
<g id="edge15" class="edge">
<title>SYNTAX_NODE_14-&gt;SYNTAX_NODE_0</title>
<path fill="none" stroke="#000000" d="M109.9879,-379.2554C109.9879,-371.138 109.9879,-362.1983 109.9879,-353.6062"/>
<polygon fill="#000000" stroke="#000000" points="113.488,-353.3766 109.9879,-343.3766 106.488,-353.3767 113.488,-353.3766"/>
</g>
<!-- SYNTAX_NODE_15 -->
<g id="node3" class="node">
<title>SYNTAX_NODE_15</title>
<ellipse fill="none" stroke="#000000" cx="375.9879" cy="-313.9095" rx="149.7233" ry="29.3315"/>
<text text-anchor="middle" x="375.9879" y="-318.1095" font-family="Times,serif" font-size="14.00" fill="#000000">kNodeColumnDefinitionList(1,69)</text>
<text text-anchor="middle" x="375.9879" y="-301.3095" font-family="Times,serif" font-size="14.00" fill="#000000">id(15)</text>
</g>
<!-- SYNTAX_NODE_0&#45;&gt;SYNTAX_NODE_15 -->
<g id="edge14" class="edge">
<title>SYNTAX_NODE_0-&gt;SYNTAX_NODE_15</title>
<path fill="none" stroke="#000000" d="M208.4391,-313.9095C210.9241,-313.9095 213.4091,-313.9095 215.8941,-313.9095"/>
<polygon fill="#000000" stroke="#000000" points="216.1103,-317.4096 226.1103,-313.9095 216.1102,-310.4096 216.1103,-317.4096"/>
</g>
<!-- SYNTAX_NODE_3 -->
<g id="node4" class="node">
<title>SYNTAX_NODE_3</title>
<ellipse fill="none" stroke="#000000" cx="375.9879" cy="-219.0782" rx="134.4243" ry="29.3315"/>
<text text-anchor="middle" x="375.9879" y="-223.2782" font-family="Times,serif" font-size="14.00" fill="#000000">kNodeColumnDefinition(1,22)</text>
<text text-anchor="middle" x="375.9879" y="-206.4782" font-family="Times,serif" font-size="14.00" fill="#000000">id(3)</text>
</g>
<!-- SYNTAX_NODE_15&#45;&gt;SYNTAX_NODE_3 -->
<g id="edge13" class="edge">
<title>SYNTAX_NODE_15-&gt;SYNTAX_NODE_3</title>
<path fill="none" stroke="#000000" d="M375.9879,-284.4241C375.9879,-276.3067 375.9879,-267.3671 375.9879,-258.7749"/>
<polygon fill="#000000" stroke="#000000" points="379.488,-258.5453 375.9879,-248.5454 372.488,-258.5454 379.488,-258.5453"/>
</g>
<!-- SYNTAX_NODE_1 -->
<g id="node5" class="node">
<title>SYNTAX_NODE_1</title>
<ellipse fill="none" stroke="#000000" cx="288.9879" cy="-124.2469" rx="98.3942" ry="29.3315"/>
<text text-anchor="middle" x="288.9879" y="-128.4469" font-family="Times,serif" font-size="14.00" fill="#000000">kNodeIdentifier(1,17)</text>
<text text-anchor="middle" x="288.9879" y="-111.6469" font-family="Times,serif" font-size="14.00" fill="#000000">id(1),val(a)</text>
</g>
<!-- SYNTAX_NODE_3&#45;&gt;SYNTAX_NODE_1 -->
<g id="edge2" class="edge">
<title>SYNTAX_NODE_3-&gt;SYNTAX_NODE_1</title>
<path fill="none" stroke="#000000" d="M349.4123,-190.1104C340.7314,-180.6481 330.9852,-170.0246 321.8959,-160.1171"/>
<polygon fill="#000000" stroke="#000000" points="324.4412,-157.7142 315.1018,-152.7115 319.283,-162.4464 324.4412,-157.7142"/>
</g>
<!-- SYNTAX_NODE_7 -->
<g id="node7" class="node">
<title>SYNTAX_NODE_7</title>
<ellipse fill="none" stroke="#000000" cx="748.9879" cy="-219.0782" rx="134.4243" ry="29.3315"/>
<text text-anchor="middle" x="748.9879" y="-223.2782" font-family="Times,serif" font-size="14.00" fill="#000000">kNodeColumnDefinition(1,40)</text>
<text text-anchor="middle" x="748.9879" y="-206.4782" font-family="Times,serif" font-size="14.00" fill="#000000">id(7),val(unique)</text>
</g>
<!-- SYNTAX_NODE_3&#45;&gt;SYNTAX_NODE_7 -->
<g id="edge12" class="edge">
<title>SYNTAX_NODE_3-&gt;SYNTAX_NODE_7</title>
<path fill="none" stroke="#000000" d="M510.399,-219.0782C541.6552,-219.0782 572.9114,-219.0782 604.1676,-219.0782"/>
<polygon fill="#000000" stroke="#000000" points="604.3157,-222.5783 614.3157,-219.0782 604.3156,-215.5783 604.3157,-222.5783"/>
</g>
<!-- SYNTAX_NODE_2 -->
<g id="node6" class="node">
<title>SYNTAX_NODE_2</title>
<ellipse fill="none" stroke="#000000" cx="518.9879" cy="-124.2469" rx="113.7273" ry="29.3315"/>
<text text-anchor="middle" x="518.9879" y="-128.4469" font-family="Times,serif" font-size="14.00" fill="#000000">kNodeColumnType(1,21)</text>
<text text-anchor="middle" x="518.9879" y="-111.6469" font-family="Times,serif" font-size="14.00" fill="#000000">id(2),val(int)</text>
</g>
<!-- SYNTAX_NODE_1&#45;&gt;SYNTAX_NODE_2 -->
<g id="edge1" class="edge">
<title>SYNTAX_NODE_1-&gt;SYNTAX_NODE_2</title>
<path fill="none" stroke="#000000" d="M387.816,-124.2469C390.1405,-124.2469 392.4649,-124.2469 394.7893,-124.2469"/>
<polygon fill="#000000" stroke="#000000" points="394.9811,-127.747 404.9811,-124.2469 394.9811,-120.747 394.9811,-127.747"/>
</g>
<!-- SYNTAX_NODE_4 -->
<g id="node8" class="node">
<title>SYNTAX_NODE_4</title>
<ellipse fill="none" stroke="#000000" cx="748.9879" cy="-124.2469" rx="98.3942" ry="29.3315"/>
<text text-anchor="middle" x="748.9879" y="-128.4469" font-family="Times,serif" font-size="14.00" fill="#000000">kNodeIdentifier(1,24)</text>
<text text-anchor="middle" x="748.9879" y="-111.6469" font-family="Times,serif" font-size="14.00" fill="#000000">id(4),val(b)</text>
</g>
<!-- SYNTAX_NODE_7&#45;&gt;SYNTAX_NODE_4 -->
<g id="edge5" class="edge">
<title>SYNTAX_NODE_7-&gt;SYNTAX_NODE_4</title>
<path fill="none" stroke="#000000" d="M748.9879,-189.5928C748.9879,-181.4754 748.9879,-172.5358 748.9879,-163.9436"/>
<polygon fill="#000000" stroke="#000000" points="752.488,-163.714 748.9879,-153.7141 745.488,-163.7141 752.488,-163.714"/>
</g>
<!-- SYNTAX_NODE_10 -->
<g id="node11" class="node">
<title>SYNTAX_NODE_10</title>
<ellipse fill="none" stroke="#000000" cx="1208.9879" cy="-219.0782" rx="134.4243" ry="29.3315"/>
<text text-anchor="middle" x="1208.9879" y="-223.2782" font-family="Times,serif" font-size="14.00" fill="#000000">kNodeColumnDefinition(1,50)</text>
<text text-anchor="middle" x="1208.9879" y="-206.4782" font-family="Times,serif" font-size="14.00" fill="#000000">id(10)</text>
</g>
<!-- SYNTAX_NODE_7&#45;&gt;SYNTAX_NODE_10 -->
<g id="edge11" class="edge">
<title>SYNTAX_NODE_7-&gt;SYNTAX_NODE_10</title>
<path fill="none" stroke="#000000" d="M883.3043,-219.0782C943.7608,-219.0782 1004.2173,-219.0782 1064.6738,-219.0782"/>
<polygon fill="#000000" stroke="#000000" points="1064.7707,-222.5783 1074.7707,-219.0782 1064.7706,-215.5783 1064.7707,-222.5783"/>
</g>
<!-- SYNTAX_NODE_6 -->
<g id="node9" class="node">
<title>SYNTAX_NODE_6</title>
<ellipse fill="none" stroke="#000000" cx="978.9879" cy="-124.2469" rx="113.7273" ry="29.3315"/>
<text text-anchor="middle" x="978.9879" y="-128.4469" font-family="Times,serif" font-size="14.00" fill="#000000">kNodeColumnType(1,33)</text>
<text text-anchor="middle" x="978.9879" y="-111.6469" font-family="Times,serif" font-size="14.00" fill="#000000">id(6),val(char)</text>
</g>
<!-- SYNTAX_NODE_4&#45;&gt;SYNTAX_NODE_6 -->
<g id="edge4" class="edge">
<title>SYNTAX_NODE_4-&gt;SYNTAX_NODE_6</title>
<path fill="none" stroke="#000000" d="M847.816,-124.2469C850.1405,-124.2469 852.4649,-124.2469 854.7893,-124.2469"/>
<polygon fill="#000000" stroke="#000000" points="854.9811,-127.747 864.9811,-124.2469 854.9811,-120.747 854.9811,-127.747"/>
</g>
<!-- SYNTAX_NODE_5 -->
<g id="node10" class="node">
<title>SYNTAX_NODE_5</title>
<ellipse fill="none" stroke="#000000" cx="978.9879" cy="-29.4156" rx="94.1114" ry="29.3315"/>
<text text-anchor="middle" x="978.9879" y="-33.6156" font-family="Times,serif" font-size="14.00" fill="#000000">kNodeNumber(1,32)</text>
<text text-anchor="middle" x="978.9879" y="-16.8156" font-family="Times,serif" font-size="14.00" fill="#000000">id(5),val(20)</text>
</g>
<!-- SYNTAX_NODE_6&#45;&gt;SYNTAX_NODE_5 -->
<g id="edge3" class="edge">
<title>SYNTAX_NODE_6-&gt;SYNTAX_NODE_5</title>
<path fill="none" stroke="#000000" d="M978.9879,-94.7615C978.9879,-86.6441 978.9879,-77.7045 978.9879,-69.1123"/>
<polygon fill="#000000" stroke="#000000" points="982.488,-68.8828 978.9879,-58.8828 975.488,-68.8828 982.488,-68.8828"/>
</g>
<!-- SYNTAX_NODE_8 -->
<g id="node12" class="node">
<title>SYNTAX_NODE_8</title>
<ellipse fill="none" stroke="#000000" cx="1208.9879" cy="-124.2469" rx="98.3942" ry="29.3315"/>
<text text-anchor="middle" x="1208.9879" y="-128.4469" font-family="Times,serif" font-size="14.00" fill="#000000">kNodeIdentifier(1,43)</text>
<text text-anchor="middle" x="1208.9879" y="-111.6469" font-family="Times,serif" font-size="14.00" fill="#000000">id(8),val(c)</text>
</g>
<!-- SYNTAX_NODE_10&#45;&gt;SYNTAX_NODE_8 -->
<g id="edge7" class="edge">
<title>SYNTAX_NODE_10-&gt;SYNTAX_NODE_8</title>
<path fill="none" stroke="#000000" d="M1208.9879,-189.5928C1208.9879,-181.4754 1208.9879,-172.5358 1208.9879,-163.9436"/>
<polygon fill="#000000" stroke="#000000" points="1212.488,-163.714 1208.9879,-153.7141 1205.488,-163.7141 1212.488,-163.714"/>
</g>
<!-- SYNTAX_NODE_13 -->
<g id="node14" class="node">
<title>SYNTAX_NODE_13</title>
<ellipse fill="none" stroke="#000000" cx="1568.9879" cy="-219.0782" rx="108.8435" ry="29.3315"/>
<text text-anchor="middle" x="1568.9879" y="-223.2782" font-family="Times,serif" font-size="14.00" fill="#000000">kNodeColumnList(1,68)</text>
<text text-anchor="middle" x="1568.9879" y="-206.4782" font-family="Times,serif" font-size="14.00" fill="#000000">id(13),val(primary keys)</text>
</g>
<!-- SYNTAX_NODE_10&#45;&gt;SYNTAX_NODE_13 -->
<g id="edge10" class="edge">
<title>SYNTAX_NODE_10-&gt;SYNTAX_NODE_13</title>
<path fill="none" stroke="#000000" d="M1343.2848,-219.0782C1378.7438,-219.0782 1414.2027,-219.0782 1449.6617,-219.0782"/>
<polygon fill="#000000" stroke="#000000" points="1449.663,-222.5783 1459.663,-219.0782 1449.6629,-215.5783 1449.663,-222.5783"/>
</g>
<!-- SYNTAX_NODE_9 -->
<g id="node13" class="node">
<title>SYNTAX_NODE_9</title>
<ellipse fill="none" stroke="#000000" cx="1438.9879" cy="-124.2469" rx="113.7273" ry="29.3315"/>
<text text-anchor="middle" x="1438.9879" y="-128.4469" font-family="Times,serif" font-size="14.00" fill="#000000">kNodeColumnType(1,49)</text>
<text text-anchor="middle" x="1438.9879" y="-111.6469" font-family="Times,serif" font-size="14.00" fill="#000000">id(9),val(float)</text>
</g>
<!-- SYNTAX_NODE_8&#45;&gt;SYNTAX_NODE_9 -->
<g id="edge6" class="edge">
<title>SYNTAX_NODE_8-&gt;SYNTAX_NODE_9</title>
<path fill="none" stroke="#000000" d="M1307.816,-124.2469C1310.1405,-124.2469 1312.4649,-124.2469 1314.7893,-124.2469"/>
<polygon fill="#000000" stroke="#000000" points="1314.9811,-127.747 1324.9811,-124.2469 1314.9811,-120.747 1314.9811,-127.747"/>
</g>
<!-- SYNTAX_NODE_11 -->
<g id="node15" class="node">
<title>SYNTAX_NODE_11</title>
<ellipse fill="none" stroke="#000000" cx="1668.9879" cy="-124.2469" rx="98.3942" ry="29.3315"/>
<text text-anchor="middle" x="1668.9879" y="-128.4469" font-family="Times,serif" font-size="14.00" fill="#000000">kNodeIdentifier(1,64)</text>
<text text-anchor="middle" x="1668.9879" y="-111.6469" font-family="Times,serif" font-size="14.00" fill="#000000">id(11),val(a)</text>
</g>
<!-- SYNTAX_NODE_13&#45;&gt;SYNTAX_NODE_11 -->
<g id="edge9" class="edge">
<title>SYNTAX_NODE_13-&gt;SYNTAX_NODE_11</title>
<path fill="none" stroke="#000000" d="M1598.9912,-190.6257C1609.3683,-180.785 1621.1212,-169.6396 1631.9926,-159.3301"/>
<polygon fill="#000000" stroke="#000000" points="1634.5027,-161.7733 1639.3504,-152.3526 1629.6859,-156.694 1634.5027,-161.7733"/>
</g>
<!-- SYNTAX_NODE_12 -->
<g id="node16" class="node">
<title>SYNTAX_NODE_12</title>
<ellipse fill="none" stroke="#000000" cx="1883.9879" cy="-124.2469" rx="98.3942" ry="29.3315"/>
<text text-anchor="middle" x="1883.9879" y="-128.4469" font-family="Times,serif" font-size="14.00" fill="#000000">kNodeIdentifier(1,67)</text>
<text text-anchor="middle" x="1883.9879" y="-111.6469" font-family="Times,serif" font-size="14.00" fill="#000000">id(12),val(c)</text>
</g>
<!-- SYNTAX_NODE_11&#45;&gt;SYNTAX_NODE_12 -->
<g id="edge8" class="edge">
<title>SYNTAX_NODE_11-&gt;SYNTAX_NODE_12</title>
<path fill="none" stroke="#000000" d="M1767.6696,-124.2469C1770.1615,-124.2469 1772.6534,-124.2469 1775.1453,-124.2469"/>
<polygon fill="#000000" stroke="#000000" points="1775.39,-127.747 1785.3899,-124.2469 1775.3899,-120.747 1775.39,-127.747"/>
</g>
</g>
</svg>